<svg xmlns="http://www.w3.org/2000/svg" xmlns:xlink="http://www.w3.org/1999/xlink" xmlns:serif="http://www.serif.com/" viewBox="0 0 100 125" version="1.1" xml:space="preserve" style="" x="0px" y="0px" fill-rule="evenodd" clip-rule="evenodd" stroke-linejoin="round" stroke-miterlimit="2"><path d="M71.37,25.31C70.36,14.29 61.006,5.755 49.94,5.755C38.159,5.755 28.456,15.429 28.42,27.21L28.42,34C28.406,38.752 29.979,43.374 32.89,47.13L34.11,48.71L37.28,46.27L36.06,44.68C34.547,42.732 33.473,40.481 32.91,38.08L40.06,26.85C42.263,28.438 44.914,29.289 47.63,29.28L67.46,29.28L67.46,34C67.476,37.868 66.197,41.632 63.83,44.69L62.61,46.3L65.77,48.74L67,47.16C69.914,43.395 71.485,38.761 71.46,34L71.46,25.31L71.37,25.31ZM41.27,22.68L39.27,20.68L32.42,31.42L32.42,27.21L32.42,27.179C32.42,17.568 40.329,9.659 49.94,9.659C58.848,9.659 66.41,16.453 67.36,25.31L47.63,25.31C45.246,25.311 42.957,24.364 41.27,22.68Z" style="" fill-rule="nonzero"/><path d="M92,89L88,89L88,85.46C88.001,79.168 85.751,73.079 81.66,68.3L80.36,66.78L83.36,64.18L84.7,65.7C89.411,71.204 92.001,78.215 92,85.46L92,89Z" style="" fill-rule="nonzero"/><path d="M12,89L8,89L8,85.46C7.999,78.215 10.589,71.204 15.3,65.7L16.61,64.18L19.61,66.78L18.31,68.3C14.229,73.084 11.991,79.172 12,85.46L12,89Z" style="" fill-rule="nonzero"/><path d="M84,85L84,45L16,45L16,85L3,85L3,89L97,89L97,85L84,85ZM20,85L20,49L80,49L80,85L20,85Z" style="" fill-rule="nonzero"/><path d="M50,77L49.94,77C47.531,76.982 45.228,75.998 43.55,74.27C40.18,70.799 40.18,65.201 43.55,61.73C45.228,60.002 47.531,59.018 49.94,59C52.345,58.993 54.656,59.943 56.36,61.64L57.46,62.74L54.33,68L57.46,73.26L56.36,74.36C54.682,76.059 52.388,77.011 50,77ZM50,63C48.658,63.008 47.374,63.556 46.44,64.52C44.597,66.474 44.597,69.566 46.44,71.52C47.381,72.469 48.664,73.002 50,73C50.814,73.007 51.617,72.814 52.34,72.44L49.67,68L52.31,63.56C51.596,63.192 50.804,63 50,63Z" style="" fill-rule="nonzero"/><rect x="23" y="71" width="4" height="6"/><rect x="23" y="55" width="4" height="13"/><text x="0" y="115" fill="#000000" font-size="5px" font-weight="bold" font-family="'Helvetica Neue', Helvetica, Arial-Unicode, Arial, Sans-serif">Created by Andreas Vögele</text><text x="0" y="120" fill="#000000" font-size="5px" font-weight="bold" font-family="'Helvetica Neue', Helvetica, Arial-Unicode, Arial, Sans-serif">from the Noun Project</text></svg>